<?xml version="1.0" encoding="UTF-8" standalone="no"?>
<svg
   height="500"
   width="500"
   version="1.1"
   viewBox="0 0 132.29167 132.29167"
   id="svg16"
   sodipodi:docname="abraflexi-reminder-clean-labels.svg"
   inkscape:version="1.2.2 (b0a8486541, 2022-12-01)"
   xmlns:inkscape="http://www.inkscape.org/namespaces/inkscape"
   xmlns:sodipodi="http://sodipodi.sourceforge.net/DTD/sodipodi-0.dtd"
   xmlns="http://www.w3.org/2000/svg"
   xmlns:svg="http://www.w3.org/2000/svg"
   xmlns:rdf="http://www.w3.org/1999/02/22-rdf-syntax-ns#"
   xmlns:cc="http://creativecommons.org/ns#"
   xmlns:dc="http://purl.org/dc/elements/1.1/">
  <defs
     id="defs20">
    <filter
       style="color-interpolation-filters:sRGB"
       inkscape:label="Drop Shadow"
       id="filter122">
      <feFlood
         flood-opacity="0.498039"
         flood-color="rgb(0,0,0)"
         result="flood"
         id="feFlood112" />
      <feComposite
         in="flood"
         in2="SourceGraphic"
         operator="in"
         result="composite1"
         id="feComposite114" />
      <feGaussianBlur
         in="composite1"
         stdDeviation="3"
         result="blur"
         id="feGaussianBlur116" />
      <feOffset
         dx="6"
         dy="6"
         result="offset"
         id="feOffset118" />
      <feComposite
         in="SourceGraphic"
         in2="offset"
         operator="over"
         result="composite2"
         id="feComposite120" />
    </filter>
    <clipPath
       clipPathUnits="userSpaceOnUse"
       id="clipPath1265">
      <circle
         r="20"
         cy="20"
         cx="19.999998"
         id="circle1267"
         style="display:inline;opacity:1;vector-effect:none;fill:#b7c4c8;fill-opacity:1;fill-rule:evenodd;stroke:none;stroke-width:6.20377;stroke-linecap:butt;stroke-linejoin:miter;stroke-miterlimit:4;stroke-dasharray:none;stroke-dashoffset:0;stroke-opacity:1;marker:none;marker-start:none;marker-mid:none;marker-end:none;paint-order:fill markers stroke" />
    </clipPath>
    <clipPath
       clipPathUnits="userSpaceOnUse"
       id="clipPath20">
      <path
         d="M 64.09713,512 H 447.9029 c 22.2879,0 30.3701,-2.3206 38.5182,-6.6783 8.1482,-4.3577 14.5429,-10.7524 18.9006,-18.9006 C 509.6794,478.273 512,470.1908 512,447.9029 V 64.09713 C 512,41.80916 509.6794,33.72701 505.3217,25.57886 500.964,17.43071 494.5693,11.03599 486.4211,6.678318 478.273,2.32064 470.1908,0 447.9029,0 H 64.09713 C 41.80916,0 33.72701,2.32064 25.57886,6.678318 17.43071,11.03599 11.03599,17.43071 6.678318,25.57886 2.32064,33.72701 0,41.80916 0,64.09713 V 447.9029 c 0,22.2879 2.32064,30.3701 6.678318,38.5182 4.357672,8.1482 10.752392,14.5429 18.900542,18.9006 8.14815,4.3577 16.2303,6.6783 38.51827,6.6783 z"
         clip-rule="evenodd"
         id="path18" />
    </clipPath>
    <clipPath
       clipPathUnits="userSpaceOnUse"
       id="clipPath26">
      <path
         d="M 0,0 H 512 V 512 H 0 Z"
         id="path24" />
    </clipPath>
    <clipPath
       clipPathUnits="userSpaceOnUse"
       id="clipPath36">
      <path
         d="M 310.6214,362 424.7089,162.0939 H 310.6961 l -57.0086,99.4988 z"
         clip-rule="evenodd"
         id="path34" />
    </clipPath>
    <clipPath
       clipPathUnits="userSpaceOnUse"
       id="clipPath42">
      <path
         d="M 0,0 H 512 V 512 H 0 Z"
         id="path40" />
    </clipPath>
    <clipPath
       clipPathUnits="userSpaceOnUse"
       id="clipPath52">
      <path
         d="M 197.1006,362 83.51535,162.0939 H 197.1006 L 310.6214,362 Z"
         clip-rule="evenodd"
         id="path50" />
    </clipPath>
    <clipPath
       clipPathUnits="userSpaceOnUse"
       id="clipPath58">
      <path
         d="M 0,0 H 512 V 512 H 0 Z"
         id="path56" />
    </clipPath>
  </defs>
  <sodipodi:namedview
     inkscape:document-rotation="0"
     pagecolor="#ffffff"
     bordercolor="#666666"
     borderopacity="1"
     objecttolerance="10"
     gridtolerance="10"
     guidetolerance="10"
     inkscape:pageopacity="0"
     inkscape:pageshadow="2"
     inkscape:window-width="1920"
     inkscape:window-height="1120"
     id="namedview18"
     showgrid="false"
     inkscape:zoom="0.428"
     inkscape:cx="-272.19626"
     inkscape:cy="4.6728972"
     inkscape:window-x="0"
     inkscape:window-y="0"
     inkscape:window-maximized="1"
     inkscape:current-layer="svg16"
     inkscape:showpageshadow="2"
     inkscape:pagecheckerboard="0"
     inkscape:deskcolor="#d1d1d1" />
  <metadata
     id="metadata2">
    <rdf:RDF>
      <cc:Work
         rdf:about="">
        <dc:format>image/svg+xml</dc:format>
        <dc:type
           rdf:resource="http://purl.org/dc/dcmitype/StillImage" />
        <dc:title />
      </cc:Work>
    </rdf:RDF>
  </metadata>
  <g
     id="g315"
     transform="matrix(0.25377153,0,0,-0.25377153,1.1803233,131.11135)">
    <g
       id="g14">
      <g
         id="g16"
         clip-path="url(#clipPath20)">
        <g
           id="g22"
           clip-path="url(#clipPath26)">
          <path
             d="M -1,513 H 513 V -1 H -1 Z"
             style="fill:#f6b102;fill-opacity:1;fill-rule:nonzero;stroke:none"
             id="path28" />
        </g>
      </g>
    </g>
    <g
       id="g30">
      <g
         id="g32"
         clip-path="url(#clipPath36)">
        <g
           id="g38"
           clip-path="url(#clipPath42)">
          <path
             d="M 252.6875,363 H 425.7089 V 161.0939 H 252.6875 Z"
             style="fill:#fdebbf;fill-opacity:1;fill-rule:nonzero;stroke:none"
             id="path44" />
        </g>
      </g>
    </g>
    <g
       id="g46">
      <g
         id="g48"
         clip-path="url(#clipPath52)">
        <g
           id="g54"
           clip-path="url(#clipPath58)">
          <path
             d="M 82.51535,363 H 311.6214 V 161.0939 H 82.51535 Z"
             style="fill:#ffffff;fill-opacity:1;fill-rule:nonzero;stroke:none"
             id="path60" />
        </g>
      </g>
    </g>
  </g>
  <g
     id="g1448"
     transform="matrix(0.54273289,0,0,0.54273289,59.301036,60.537399)">
    <circle
       style="display:inline;vector-effect:none;fill:#b7c4c8;fill-opacity:1;fill-rule:evenodd;stroke:none;stroke-width:20.1287;stroke-linecap:butt;stroke-linejoin:miter;stroke-miterlimit:4;stroke-dasharray:none;stroke-dashoffset:0;stroke-opacity:1;marker:none;marker-start:none;marker-mid:none;marker-end:none;paint-order:fill markers stroke"
       id="path877-1-0-7"
       cx="66.145844"
       cy="66.145836"
       r="64.891823" />
    <g
       transform="matrix(3.2445909,0,0,3.2445909,1.2540206,1.2540172)"
       style="display:inline"
       id="g1261"
       clip-path="url(#clipPath1265)">
      <rect
         transform="matrix(1,0,-0.68447374,0.72903751,0,0)"
         y="30.404995"
         x="32.758572"
         height="30.674286"
         width="17.91404"
         id="rect1257"
         style="opacity:1;vector-effect:none;fill:#ffffff;fill-opacity:1;fill-rule:evenodd;stroke:none;stroke-width:9.36947;stroke-linecap:butt;stroke-linejoin:miter;stroke-miterlimit:4;stroke-dasharray:none;stroke-dashoffset:0;stroke-opacity:1" />
      <g
         transform="matrix(1.1493315,0,0,1.1493315,35.70599,18.514112)"
         id="use1253"
         style="display:inline;stroke-width:0.870071">
        <path
           id="path396"
           d="m -3.3105469,-12.626953 c -0.1848545,0.0092 -0.3648951,0.06211 -0.5253906,0.154297 l -8.1542965,4.707031 11.2792965,2.861328 v 6.916016 l 6.0410156,-3.488281 c 0.3627353,-0.209546 0.5861013,-0.596715 0.5859375,-1.015626 l 2.0273438,-6.423828 c 3.017e-4,-0.536206 -0.3632199,-1.00428 -0.8828125,-1.136718 L -2.9609375,-12.59375 c -0.1142085,-0.02856 -0.2320669,-0.03975 -0.3496094,-0.0332 z"
           style="fill:#5677a9;fill-opacity:1;fill-rule:evenodd;stroke:none;stroke-width:8;stroke-linecap:butt;stroke-linejoin:round;stroke-miterlimit:4;stroke-dasharray:none;stroke-dashoffset:0;stroke-opacity:1;marker:none;marker-start:none;marker-mid:none;marker-end:none;paint-order:fill markers stroke"
           inkscape:connector-curvature="0" />
        <path
           id="path398"
           d="m -11.990234,-7.765625 -6.06836,3.503906 c -0.362735,0.209546 -0.586101,0.596714 -0.585937,1.015625 l -2.027344,6.423828 c -3.02e-4,0.536205 0.36322,1.00428 0.882813,1.136719 l 10.0214839,2.541016 c 0.2962992,0.07526 0.6102767,0.03181 0.875,-0.121094 l 8.1816406,-4.722656 v -6.916016 z"
           style="fill:#f0940e;fill-opacity:1;fill-rule:evenodd;stroke:none;stroke-width:8;stroke-linecap:butt;stroke-linejoin:round;stroke-miterlimit:4;stroke-dasharray:none;stroke-dashoffset:0;stroke-opacity:1;marker:none;marker-start:none;marker-mid:none;marker-end:none;paint-order:fill markers stroke"
           inkscape:connector-curvature="0" />
        <path
           inkscape:connector-curvature="0"
           style="color:#000000;font-style:normal;font-variant:normal;font-weight:normal;font-stretch:normal;font-size:medium;line-height:normal;font-family:sans-serif;font-variant-ligatures:normal;font-variant-position:normal;font-variant-caps:normal;font-variant-numeric:normal;font-variant-alternates:normal;font-feature-settings:normal;text-indent:0;text-align:start;text-decoration:none;text-decoration-line:none;text-decoration-style:solid;text-decoration-color:#000000;letter-spacing:normal;word-spacing:normal;text-transform:none;writing-mode:lr-tb;direction:ltr;text-orientation:mixed;dominant-baseline:auto;baseline-shift:baseline;text-anchor:start;white-space:normal;shape-padding:0;clip-rule:nonzero;display:inline;overflow:visible;visibility:visible;opacity:1;isolation:auto;mix-blend-mode:normal;color-interpolation:sRGB;color-interpolation-filters:linearRGB;solid-color:#000000;solid-opacity:1;vector-effect:none;fill:#ffffff;fill-opacity:1;fill-rule:evenodd;stroke:none;stroke-width:1;stroke-linecap:round;stroke-linejoin:round;stroke-miterlimit:4;stroke-dasharray:none;stroke-dashoffset:0;stroke-opacity:1;marker:none;paint-order:fill markers stroke;color-rendering:auto;image-rendering:auto;shape-rendering:auto;text-rendering:auto;enable-background:accumulate"
           d="M 7.1660156,-6.4550781 -8.2675781,2.4550781 -19.541016,-0.40429688 -19.841797,0.54882812 -8.3164062,3.4726562 A 0.50005,0.50005 0 0 0 -7.9433594,3.421875 L 6.7207031,-5.0449219 Z"
           id="path400" />
        <path
           sodipodi:nodetypes="ccccccccc"
           inkscape:connector-curvature="0"
           id="path402"
           d="m 7.703125,-9.626953 -12.847656,7.3945312 c -0.876266,0.5473237 -1.046646,0.9125201 -1.457031,1.6484375 L -8.941406,6.75 c 0.0154,-0.008 0.03374,-0.0069 0.04883,-0.01563 L 5.33008,-1.4765624 c 0.362736,-0.209546 0.586102,-0.596714 0.585938,-1.015625 L 7.943361,-8.9160155 C 7.94351,-9.180125 7.854681,-9.4278682 7.703127,-9.626953 Z"
           style="display:inline;opacity:0.2;fill:#000000;stroke:none;stroke-width:1px;stroke-linecap:butt;stroke-linejoin:miter;stroke-opacity:1" />
      </g>
    </g>
    <circle
       r="61.647224"
       cy="66.145836"
       cx="66.145844"
       id="circle1003-9-6-2"
       style="display:inline;vector-effect:none;fill:none;fill-opacity:1;fill-rule:evenodd;stroke:#5677a9;stroke-width:6.4892;stroke-linecap:butt;stroke-linejoin:miter;stroke-miterlimit:4;stroke-dasharray:none;stroke-dashoffset:0;stroke-opacity:1;marker:none;marker-start:none;marker-mid:none;marker-end:none;paint-order:fill markers stroke" />
  </g>
</svg>
